HIERARCHY
ROOT hips
{
  OFFSET 0 10.6860622 2.3727825e-15
  CHANNELS 6 Xposition Yposition Zposition Yrotation Xrotation Zrotation
  JOINT leftUpperLeg
  {
    OFFSET 0.6642549969 -0.9402397400000004 0
    CHANNELS 3 Yrotation Xrotation Zrotation
    JOINT leftLowerLeg
    {
      OFFSET 0 -3.997221335632195 0
      CHANNELS 3 Yrotation Xrotation Zrotation
      JOINT leftFoot
      {
        OFFSET -0.13777839790000004 -4.6145792000000005 -0.22186036399999998
        CHANNELS 3 Yrotation Xrotation Zrotation
        JOINT leftToes
        {
          OFFSET -0.03777410834999995 -0.9130806927000008 0.85230013
          CHANNELS 3 Yrotation Xrotation Zrotation
          End Site
          {
            OFFSET -0.03777410834999995 -0.9130806927000008 0.85230013
          }
        }
      }
    }
  }
  JOINT rightUpperLeg
  {
    OFFSET -0.6642778626 -0.9402397400000004 0
    CHANNELS 3 Yrotation Xrotation Zrotation
    JOINT rightLowerLeg
    {
      OFFSET 0 -3.997221452859387 0
      CHANNELS 3 Yrotation Xrotation Zrotation
      JOINT rightFoot
      {
        OFFSET 0.1377926176 -4.6145792000000005 -0.22185782299999995
        CHANNELS 3 Yrotation Xrotation Zrotation
        JOINT rightToes
        {
          OFFSET 0.037780746850000047 -0.9130806927000008 0.85230167
          CHANNELS 3 Yrotation Xrotation Zrotation
          End Site
          {
            OFFSET 0.037780746850000047 -0.9130806927000008 0.85230167
          }
        }
      }
    }
  }
  JOINT spine
  {
    OFFSET 0 0.13988381660000015 0
    CHANNELS 3 Yrotation Xrotation Zrotation
    JOINT chest
    {
      OFFSET 0 0.6191039003973773 0
      CHANNELS 3 Yrotation Xrotation Zrotation
      JOINT upperChest
      {
        OFFSET 0 0.9855186130586943 0
        CHANNELS 3 Yrotation Xrotation Zrotation
        JOINT leftShoulder
        {
          OFFSET 0.1807663869 1.5087829790000005 0
          CHANNELS 3 Yrotation Xrotation Zrotation
          JOINT leftUpperArm
          {
            OFFSET 0.5985063006419806 0 0
            CHANNELS 3 Yrotation Xrotation Zrotation
            JOINT leftLowerArm
            {
              OFFSET 2.2993332369501065 0 0
              CHANNELS 3 Yrotation Xrotation Zrotation
              JOINT leftHand
              {
                OFFSET 2.395047042602395 0 0
                CHANNELS 3 Yrotation Xrotation Zrotation
                JOINT leftIndexProximal
                {
                  OFFSET 0.5766295810000004 0.04556643899499946 0.17265095988184
                  CHANNELS 3 Yrotation Xrotation Zrotation
                  JOINT leftIndexIntermediate
                  {
                    OFFSET 0.2957229000000008 -0.019352197700001517 -0.007932640616999987
                    CHANNELS 3 Yrotation Xrotation Zrotation
                    JOINT leftIndexDistal
                    {
                      OFFSET 0.19008243099999922 -0.012484908149998475 -0.002786250786000012
                      CHANNELS 3 Yrotation Xrotation Zrotation
                      End Site
                      {
                        OFFSET 0.19008243099999922 -0.012484908149998475 -0.002786250786000012
                      }
                    }
                  }
                }
                JOINT leftMiddleProximal
                {
                  OFFSET 0.5834975091000001 0.0524350405149987 0.02204081888183999
                  CHANNELS 3 Yrotation Xrotation Zrotation
                  JOINT leftMiddleIntermediate
                  {
                    OFFSET 0.33880573540000003 -0.019871473270000717 -0.00000971183179999946
                    CHANNELS 3 Yrotation Xrotation Zrotation
                    JOINT leftMiddleDistal
                    {
                      OFFSET 0.20676022730000088 -0.012221336379999448 0.0001471936708000235
                      CHANNELS 3 Yrotation Xrotation Zrotation
                      End Site
                      {
                        OFFSET 0.20676022730000088 -0.012221336379999448 0.0001471936708000235
                      }
                    }
                  }
                }
                JOINT leftLittleProximal
                {
                  OFFSET 0.5344154683999995 -0.012880921405001189 -0.24414037221816004
                  CHANNELS 3 Yrotation Xrotation Zrotation
                  JOINT leftLittleIntermediate
                  {
                    OFFSET 0.21758961730000093 -0.011650919939999227 0.011893592810000034
                    CHANNELS 3 Yrotation Xrotation Zrotation
                    JOINT leftLittleDistal
                    {
                      OFFSET 0.1475273964999999 -0.008152365682999818 0.006001092492999946
                      CHANNELS 3 Yrotation Xrotation Zrotation
                      End Site
                      {
                        OFFSET 0.1475273964999999 -0.008152365682999818 0.006001092492999946
                      }
                    }
                  }
                }
                JOINT leftRingProximal
                {
                  OFFSET 0.5799399463000003 0.026911854694997794 -0.12150566991816003
                  CHANNELS 3 Yrotation Xrotation Zrotation
                  JOINT leftRingIntermediate
                  {
                    OFFSET 0.26167887460000006 -0.013480186499999602 0.010996293000000053
                    CHANNELS 3 Yrotation Xrotation Zrotation
                    JOINT leftRingDistal
                    {
                      OFFSET 0.17667108799999987 -0.008990287899999228 0.0055541023999999065
                      CHANNELS 3 Yrotation Xrotation Zrotation
                      End Site
                      {
                        OFFSET 0.17667108799999987 -0.008990287899999228 0.0055541023999999065
                      }
                    }
                  }
                }
                JOINT leftThumbProximal
                {
                  OFFSET 0.11018806699999972 -0.09448718900500053 0.17047963138184
                  CHANNELS 3 Yrotation Xrotation Zrotation
                  JOINT leftThumbIntermediate
                  {
                    OFFSET 0.31062601459999983 -0.08126270900000132 0.15443142000000007
                    CHANNELS 3 Yrotation Xrotation Zrotation
                    JOINT leftThumbDistal
                    {
                      OFFSET 0.21627175790000086 -0.08833193599999878 0.018771167799999988
                      CHANNELS 3 Yrotation Xrotation Zrotation
                      End Site
                      {
                        OFFSET 0.21627175790000086 -0.08833193599999878 0.018771167799999988
                      }
                    }
                  }
                }
              }
            }
          }
        }
        JOINT neck
        {
          OFFSET 0 1.5463305265074576 0
          CHANNELS 3 Yrotation Xrotation Zrotation
          JOINT head
          {
            OFFSET 0 0.8456443600000344 0
            CHANNELS 3 Yrotation Xrotation Zrotation
            JOINT leftEye
            {
              OFFSET 0.30408573140000006 0.5104519199999995 0.1276382305
              CHANNELS 3 Yrotation Xrotation Zrotation
              End Site
              {
                OFFSET 0.30408573140000006 0.5104519199999995 0.1276382305
              }
            }
            JOINT rightEye
            {
              OFFSET -0.30409491089999996 0.5104519199999995 0.1276379445
              CHANNELS 3 Yrotation Xrotation Zrotation
              End Site
              {
                OFFSET -0.30409491089999996 0.5104519199999995 0.1276379445
              }
            }
            JOINT jaw
            {
              OFFSET -3.155239131000001e-7 -0.11984121820000082 0.60178107
              CHANNELS 3 Yrotation Xrotation Zrotation
              End Site
              {
                OFFSET -3.155239131000001e-7 -0.11984121820000082 0.60178107
              }
            }
          }
        }
        JOINT rightShoulder
        {
          OFFSET -0.1807303465 1.5087829790000005 0
          CHANNELS 3 Yrotation Xrotation Zrotation
          JOINT rightUpperArm
          {
            OFFSET -0.5985063796536958 0 0
            CHANNELS 3 Yrotation Xrotation Zrotation
            JOINT rightLowerArm
            {
              OFFSET -2.2993322059002854 0 0
              CHANNELS 3 Yrotation Xrotation Zrotation
              JOINT rightHand
              {
                OFFSET -2.395045314457259 0 0
                CHANNELS 3 Yrotation Xrotation Zrotation
                JOINT rightIndexProximal
                {
                  OFFSET -0.5764487688300002 0.0441371204405987 0.17361932004999997
                  CHANNELS 3 Yrotation Xrotation Zrotation
                  JOINT rightIndexIntermediate
                  {
                    OFFSET -0.29573011380000047 -0.01934826376999843 -0.007698921482999974
                    CHANNELS 3 Yrotation Xrotation Zrotation
                    JOINT rightIndexDistal
                    {
                      OFFSET -0.19008373999999884 -0.012503266380000655 -0.0026365778999999897
                      CHANNELS 3 Yrotation Xrotation Zrotation
                      End Site
                      {
                        OFFSET -0.19008373999999884 -0.012503266380000655 -0.0026365778999999897
                      }
                    }
                  }
                }
                JOINT rightMiddleProximal
                {
                  OFFSET -0.5834852037300005 0.05211639405060153 0.02307162440000001
                  CHANNELS 3 Yrotation Xrotation Zrotation
                  JOINT rightMiddleIntermediate
                  {
                    OFFSET -0.33880114510000003 -0.019952774050000954 0.0002455003561999819
                    CHANNELS 3 Yrotation Xrotation Zrotation
                    JOINT rightMiddleDistal
                    {
                      OFFSET -0.20675694929999955 -0.012273788999999091 0.00030209124000002766
                      CHANNELS 3 Yrotation Xrotation Zrotation
                      End Site
                      {
                        OFFSET -0.20675694929999955 -0.012273788999999091 0.00030209124000002766
                      }
                    }
                  }
                }
                JOINT rightLittleProximal
                {
                  OFFSET -0.5346811737299992 -0.011214256288399227 -0.24363941305000003
                  CHANNELS 3 Yrotation Xrotation Zrotation
                  JOINT rightLittleIntermediate
                  {
                    OFFSET -0.21757715980000092 -0.011771559690000988 0.01201554387
                    CHANNELS 3 Yrotation Xrotation Zrotation
                    JOINT rightLittleDistal
                    {
                      OFFSET -0.1475201849000004 -0.00822055339600003 0.006082065407000015
                      CHANNELS 3 Yrotation Xrotation Zrotation
                      End Site
                      {
                        OFFSET -0.1475201849000004 -0.00822055339600003 0.006082065407000015
                      }
                    }
                  }
                }
                JOINT rightRingProximal
                {
                  OFFSET -0.5800810755299999 0.027657985680600072 -0.12066365025000003
                  CHANNELS 3 Yrotation Xrotation Zrotation
                  JOINT rightRingIntermediate
                  {
                    OFFSET -0.26166445029999974 -0.013623118409999302 0.011164098990000045
                    CHANNELS 3 Yrotation Xrotation Zrotation
                    JOINT rightRingDistal
                    {
                      OFFSET -0.17666387530000027 -0.009072900100000503 0.005668185599999959
                      CHANNELS 3 Yrotation Xrotation Zrotation
                      End Site
                      {
                        OFFSET -0.17666387530000027 -0.009072900100000503 0.005668185599999959
                      }
                    }
                  }
                }
                JOINT rightThumbProximal
                {
                  OFFSET -0.10997596379000074 -0.09577489355940072 0.16989765924999997
                  CHANNELS 3 Yrotation Xrotation Zrotation
                  JOINT rightThumbIntermediate
                  {
                    OFFSET -0.31036620999999986 -0.08229339117999834 0.15440884469999996
                    CHANNELS 3 Yrotation Xrotation Zrotation
                    JOINT rightThumbDistal
                    {
                      OFFSET -0.21631306399999906 -0.08825326400000111 0.018656797720000014
                      CHANNELS 3 Yrotation Xrotation Zrotation
                      End Site
                      {
                        OFFSET -0.21631306399999906 -0.08825326400000111 0.018656797720000014
                      }
                    }
                  }
                }
              }
            }
          }
        }
      }
    }
  }
}
MOTION
Frames: 9
Frame Time: 0.03333333333333333
0 11.682712981546562 0 0 0 0 0 0 -5.826343164929014 -0.3712483961610101 -3.6333298826370974 5.838118207697276 0 0 0 0 0 0 0 0 5.826343164929014 0.3712483961610101 -3.6333298826370974 -5.838118207697276 0 0 0 0 0 0 0 -4.610651315171937 0 0 3.0831277533083026 0 0 0 0 0 1.5275236235667615 0 0 0 0 0 0 0 0 0 0 0 0 0 0 0 0 0 0 0 0 0 0 0 0 0 0 0 0 0 0 0 0 0 0 0 0 0 0 0 0 0 0 0 0 0 0 0 0 0 0 0 0 0 0 0 0 1.5275236235667615 0 0 0 0 0 0 0 0 0 0 0 0 0 0 1.5275236235667615 0 0 0 0 0 0 0 0 0 0 0 0 0 0 0 0 0 0 0 0 0 0 0 0 0 0 0 0 0 0 0 0 0 0 0 0 0 0 0 0 0 0 0 0 0 0 0 0 0 0 0 0 0 0 0
0 -6.5115185726109885 8.096470213929686 -90.40133499766667 89.73312138885133 89.3438999499025 -49.733904678769406 -64.31740293874984 75.95601525318835 56.15674916194933 80.80232127793344 39.68526961888699 5.487289320894962 42.34408608291465 10.262597995101522 0 0 0 58.86883909418875 -64.19503748130451 -88.85485032924808 -55.89565017708152 80.81132053800249 -39.48962760557765 -5.584678016726812 42.93631788470279 -10.403156789901669 0 0 0 -0.42317041268336075 -3.6799888355680728 -0.3628439829534674 -1.0605907862166464 39.82345770118108 -1.7462889375307777 0 0 0 -11.840907684826167 -35.923289442042304 30.60882459822202 -43.8160470369781 -38.76638672507135 -35.188594396082046 -144.27261612316371 -31.12148676771509 83.98825329211256 -12.5868248211353 -12.540836727419784 -34.73161706488967 0 0 0 0 0 0 0 0 0 0 0 0 0 0 0 0 0 0 0 0 0 0 0 0 0 0 0 0 0 0 0 0 0 0 0 0 0 0 0 0 0 0 0 0 0 0 10.519078224446352 0 0 -64.01802618695942 0 0 0 0 0 0 0 0 0 0 10.648854590143308 -36.4064119894864 -31.531955234370265 43.45365407650039 -38.51020958543931 35.97346387552729 144.23009855332128 -30.968339000416773 -83.98416626332161 13.456847109559394 -13.172768488102104 33.48994726047527 0 0 0 0 0 0 0 0 0 0 0 0 0 0 0 0 0 0 0 0 0 0 0 0 0 0 0 0 0 0 0 0 0 0 0 0 0 0 0 0 0 0 0 0 0
0 -6.5115185726109885 8.096470213929686 -90.40133499766667 89.73312138885133 89.3438999499025 -49.733904678769406 -64.31740293874984 75.95601525318835 56.15674916194933 80.80232127793344 39.68526961888699 5.487289320894962 42.34408608291465 10.262597995101522 0 0 0 58.86883909418875 -64.19503748130451 -88.85485032924808 -55.895690020658485 80.81134192431948 -39.4896651217733 -5.584678016726812 42.93631788470279 -10.403156789901669 0 0 0 -0.4232545254862411 -4.001193744041591 -0.36039051775961134 -1.0643685512534473 40.07329213874116 -1.752350906560803 0 0 0 -12.167458352016242 -35.66607027066396 30.791359109072044 -43.673116050580646 -38.75016950023985 -34.97189270599192 -144.25070247904927 -31.206695642799673 84.33303181263442 -12.664571059794877 -12.575968217818033 -34.91763607359974 0 0 0 0 0 0 0 0 0 0 0 0 0 0 0 0 0 0 0 0 0 0 0 0 0 0 0 0 0 0 0 0 0 0 0 0 0 0 0 0 0 0 0 0 0 0 10.519078224446352 0 0 -63.73187045718504 0 0 0 0 0 0 0 0 0 0 10.981599315536721 -36.1426477346934 -31.663315483637263 43.33066078738002 -38.49925152720382 35.736404218658706 144.2074969924255 -31.052278469913364 -84.32010621000204 13.501667565371344 -13.179307214618918 33.71180374956051 0 0 0 0 0 0 0 0 0 0 0 0 0 0 0 0 0 0 0 0 0 0 0 0 0 0 0 0 0 0 0 0 0 0 0 0 0 0 0 0 0 0 0 0 0
0 -6.5115185726109885 8.096470213929686 -90.40133499766667 89.73312138885133 89.3438999499025 -49.733904678769406 -64.31740293874984 75.95601525318835 56.15674916194933 80.80232127793344 39.68526961888699 5.487289320894962 42.34408608291465 10.262599131753907 0 0 0 58.86883909418875 -64.19503748130451 -88.85485032924808 -55.89573286210593 80.81134192431948 -39.48970433805288 -5.584678016726812 42.93631788470279 -10.403156789901669 0 0 0 -0.4233524920506867 -4.322398367772499 -0.357935542362918 -1.0681949272823894 40.32312817065756 -1.758456934290153 0 0 0 -12.491955854705417 -35.40801370616724 30.97150220620917 -43.5301462913308 -38.73437624699799 -34.75518483658432 -144.22936805562946 -31.29201332376264 84.6780838009552 -12.742210392968724 -12.611345106704881 -35.10363331730672 0 0 0 0 0 0 0 0 0 0 0 0 0 0 0 0 0 0 0 0 0 0 0 0 0 0 0 0 0 0 0 0 0 0 0 0 0 0 0 0 0 0 0 0 0 0 10.519078224446352 0 0 -63.44570913625779 0 0 0 0 0 0 0 0 0 0 11.31248415396865 -35.878279518760664 -31.792343135675882 43.207628649333 -38.48869653524188 35.49935114422526 144.1854491908007 -31.136331946094984 -84.65630424399858 13.546462521384553 -13.186014479330378 33.93365993383419 0 0 0 0 0 0 0 0 0 0 0 0 0 0 0 0 0 0 0 0 0 0 0 0 0 0 0 0 0 0 0 0 0 0 0 0 0 0 0 0 0 0 0 0 0
0 -6.5115185726109885 8.096470213929686 -90.40133499766667 89.73312138885133 89.3438999499025 -49.73389866589625 -64.31740293874984 75.95600187530464 56.156752136686464 80.80232127793344 39.6852737294209 5.487288879057063 42.344081462383926 10.262597171908228 0 0 0 58.86882867195907 -64.19503748130451 -88.85483525473282 -55.89565538844878 80.81132053800249 -39.489633794827654 -5.584675821804205 42.93631321998225 -10.403156789901669 0 0 0 -0.4235895823454758 -4.965050714673 -0.3530176284383518 -1.0759973899633337 40.8229099959233 -1.7708057959215648 0 0 0 -13.135214808328252 -34.889191430371476 31.324900048448097 -43.24397988090304 -38.70407366207708 -34.32160334839766 -144.18842931951878 -31.463053116822206 85.36934100719996 -12.897190060459405 -12.68284691818186 -35.47561431214886 0 0 0 0 0 0 0 0 0 0 0 0 0 0 0 0 0 0 0 0 0 0 0 0 0 0 0 0 0 0 0 0 0 0 0 0 0 0 0 0 0 0 0 0 0 0 10.519078224446352 0 0 -62.873222615489546 0 0 0 0 0 0 0 0 0 0 11.969131661146637 -35.34747749618558 -32.04362430236201 42.961365582480745 -38.46879504718612 35.02507631468574 144.14306862273236 -31.304830822497124 -85.32981612549385 13.635991727409326 -13.199933802583871 34.377455675789115 0 0 0 0 0 0 0 0 0 0 0 0 0 0 0 0 0 0 0 0 0 0 0 0 0 0 0 0 0 0 0 0 0 0 0 0 0 0 0 0 0 0 0 0 0
0 -6.5115185726109885 8.096470213929686 -90.40133499766667 89.73312138885133 89.3438999499025 -49.73390167233269 -64.31740293874984 75.9560085642463 56.156752136686464 80.80232127793344 39.68527167415401 5.487288879057063 42.344081462383926 10.262597171908228 0 0 0 58.86883405764173 -64.19503748130451 -88.85484273071191 -55.89565538844878 80.81132053800249 -39.48962966866111 -5.584676402126594 42.93631788470279 -10.403156789901669 0 0 0 -0.4237291679794347 -5.286477306820879 -0.35055545468372623 -1.0799756027368377 41.07284807378887 -1.7770509627522895 0 0 0 -13.453995878780411 -34.62846551613052 31.498174926945794 -43.1007711426501 -38.689528781935635 -34.104737945679545 -144.16883961928693 -31.54876432608686 85.71554029101078 -12.97453045378523 -12.718972953399698 -35.66159781486409 0 0 0 0 0 0 0 0 0 0 0 0 0 0 0 0 0 0 0 0 0 0 0 0 0 0 0 0 0 0 0 0 0 0 0 0 0 0 0 0 0 0 0 0 0 0 10.519078224446352 0 0 -62.586893994082615 0 0 0 0 0 0 0 0 0 0 12.294927887547153 -35.08109189667763 -32.16591748422512 42.83813624893 -38.45943513309474 34.78786607189266 144.12269612448978 -31.389277287547216 -85.66710128808093 13.680724490854393 -13.207150274926432 34.59939996889327 0 0 0 0 0 0 0 0 0 0 0 0 0 0 0 0 0 0 0 0 0 0 0 0 0 0 0 0 0 0 0 0 0 0 0 0 0 0 0 0 0 0 0 0 0
0 -6.5115185726109885 8.096470213929686 -90.40133499766667 89.73312138885133 89.3438999499025 -49.733904678769406 -64.31740293874984 75.95601525318835 56.15674916194933 80.80232127793344 39.68526961888699 5.487289320894962 42.34408608291465 10.262597995101522 0 0 0 58.86883909418875 -64.19503748130451 -88.85485032924808 -55.89565017708152 80.81132053800249 -39.48962760557765 -5.584678016726812 42.93631788470279 -10.403156789901669 0 0 0 -0.42388270288454305 -5.607903977692203 -0.348091177629468 -1.0840051764393936 41.322789593239314 -1.7833431246551525 0 0 0 -13.770823521941018 -34.36695523378705 31.6691479499384 -42.95752837470616 -38.67541117451256 -33.8878664930087 -144.14984003910166 -31.634570375165257 86.06202422583756 -13.05176125465517 -12.75534398357429 -35.84756060727857 0 0 0 0 0 0 0 0 0 0 0 0 0 0 0 0 0 0 0 0 0 0 0 0 0 0 0 0 0 0 0 0 0 0 0 0 0 0 0 0 0 0 0 0 0 0 10.519078224446352 0 0 -62.30056494144628 0 0 0 0 0 0 0 0 0 0 12.618971949303798 -34.81414653904721 -32.2859684330124 42.71487594048915 -38.45046889869075 34.5506600108312 144.10288624530259 -31.473819782612324 -86.0046554419931 13.725427999910064 -13.21453622068646 34.82134450142302 0 0 0 0 0 0 0 0 0 0 0 0 0 0 0 0 0 0 0 0 0 0 0 0 0 0 0 0 0 0 0 0 0 0 0 0 0 0 0 0 0 0 0 0 0
0 -6.5115185726109885 8.096470213929686 -90.40133499766667 89.73312138885133 89.3438999499025 -49.733904678769406 -64.31740293874984 75.95601525318835 56.15674396903091 80.80232127793344 39.68526345308521 5.487289320894962 42.34408608291465 10.262599131753907 0 0 0 58.86883909418875 -64.19503748130451 -88.85485032924808 -55.89569080496016 80.81134192431948 -39.489663421723655 -5.584678016726812 42.93631788470279 -10.403156789901669 0 0 0 -0.424232196156684 -6.250920032739309 -0.3431542684212709 -1.092222494399396 41.82273896959935 -1.7960716440396591 0 0 0 -14.398928914238235 -33.84145345782471 32.00438906103463 -42.67085227423632 -38.64846988945437 -33.454019253671504 -144.11359745472117 -31.80653311312869 86.75607880842053 -13.205903536855992 -12.828823262016742 -36.21946262501257 0 0 0 0 0 0 0 0 0 0 0 0 0 0 0 0 0 0 0 0 0 0 0 0 0 0 0 0 0 0 0 0 0 0 0 0 0 0 0 0 0 0 0 0 0 0 10.519078224446352 0 0 -61.72783432776042 0 0 0 0 0 0 0 0 0 0 13.262133311595079 -34.27841812006096 -32.51949310670402 42.46819108029202 -38.43373432653546 34.07614477163606 144.06491825412166 -31.64327086170027 -86.68076283176377 13.81476129283656 -13.229811332563227 35.2652907594273 0 0 0 0 0 0 0 0 0 0 0 0 0 0 0 0 0 0 0 0 0 0 0 0 0 0 0 0 0 0 0 0 0 0 0 0 0 0 0 0 0 0 0 0 0
0 -6.5115185726109885 8.096470213929686 -90.40133499766667 89.73312138885133 89.3438999499025 -49.733901212483026 -64.31740293874984 75.95600952035856 56.15672919832685 80.80232127793344 39.6852477544368 5.487289320894962 42.34408608291465 10.262597995101522 0 0 0 58.86884112217312 -64.19503748130451 -88.85485020669104 -55.89567009886532 80.81134192431948 -39.489643632081155 -5.584676402126594 42.93631321998225 -10.403156789901669 0 0 0 -0.4244277014516197 -6.572489485696018 -0.3406814393196113 -1.096412266803239 42.07273853201118 -1.8025108773843899 0 0 0 -14.710231412223564 -33.57750728642547 32.16868273372274 -42.52743403955044 -38.63562823581002 -33.23704403243166 -144.09635643231633 -31.89267475247002 87.10362093295335 -13.282815838363842 -12.865930003714205 -36.40538698136302 0 0 0 0 0 0 0 0 0 0 0 0 0 0 0 0 0 0 0 0 0 0 0 0 0 0 0 0 0 0 0 0 0 0 0 0 0 0 0 0 0 0 0 0 0 0 10.519078224446352 0 0 -61.441412918491984 0 0 0 0 0 0 0 0 0 0 13.581276764213642 -34.00968049639238 -32.63300504128218 42.344791301909005 -38.425978788537726 33.83884440794168 144.04684109767584 -31.72813631653105 -87.01933721379159 13.859389612716296 -13.237704915870275 35.487291185656666 0 0 0 0 0 0 0 0 0 0 0 0 0 0 0 0 0 0 0 0 0 0 0 0 0 0 0 0 0 0 0 0 0 0 0 0 0 0 0 0 0 0 0 0 0
